<?xml version="1.0" standalone="no"?>
<!DOCTYPE svg PUBLIC "-//W3C//DTD SVG 20010904//EN"
 "http://www.w3.org/TR/2001/REC-SVG-20010904/DTD/svg10.dtd">
<svg version="1.0" xmlns="http://www.w3.org/2000/svg"
 width="1200.000000pt" height="630.000000pt" viewBox="0 0 1200.000000 630.000000"
 preserveAspectRatio="xMidYMid meet">
<metadata>
Created by potrace 1.15, written by Peter Selinger 2001-2017
</metadata>
<g transform="translate(0.000000,630.000000) scale(0.100000,-0.100000)"
fill="#000000" stroke="none">
<path d="M5710 6049 c-347 -32 -698 -133 -1025 -294 -195 -96 -333 -181 -490
-300 -1139 -866 -1505 -2407 -875 -3690 92 -188 232 -410 356 -565 97 -120
330 -352 453 -449 236 -187 557 -371 816 -467 165 -61 243 -54 290 26 19 33
20 48 17 330 -2 162 -5 296 -6 297 -1 1 -44 -5 -96 -13 -121 -20 -376 -14
-465 11 -121 33 -224 92 -306 174 -70 70 -83 89 -152 232 -101 208 -189 319
-319 397 -41 26 -108 96 -108 115 1 38 46 59 129 59 167 0 339 -113 466 -305
75 -115 140 -185 217 -235 119 -77 262 -105 412 -82 79 12 211 51 227 67 5 5
18 45 29 88 26 103 77 208 128 265 l40 46 -121 18 c-467 71 -805 253 -997 535
-58 87 -134 249 -163 351 -60 208 -90 518 -68 707 27 232 121 455 261 622 l39
47 -15 43 c-63 184 -53 470 24 691 l19 55 94 -1 c70 -1 117 -9 184 -28 110
-33 318 -132 450 -215 l97 -61 77 20 c175 44 471 80 671 80 199 0 467 -32 665
-79 l80 -20 112 69 c252 156 476 240 634 240 65 0 69 -1 84 -29 8 -16 26 -73
40 -127 52 -198 51 -416 -2 -591 l-16 -51 47 -55 c63 -74 139 -202 176 -298
57 -147 72 -229 77 -421 13 -421 -85 -772 -285 -1018 -70 -87 -189 -190 -285
-248 -82 -49 -241 -118 -339 -146 -87 -25 -303 -70 -391 -81 l-47 -6 44 -57
c51 -64 95 -155 122 -252 16 -58 19 -123 23 -592 6 -512 7 -527 27 -555 26
-36 79 -63 125 -63 95 0 452 158 683 303 585 365 1031 929 1253 1582 111 329
160 662 150 1034 -13 496 -136 951 -373 1373 -486 866 -1355 1428 -2349 1518
-129 12 -410 11 -545 -1z"/>
</g>
</svg>
